<svg width="100%" height="100%" viewBox="0 0 500 500" version="1.1" xmlns="http://www.w3.org/2000/svg" xmlns:xlink="http://www.w3.org/1999/xlink" xml:space="preserve" xmlns:serif="http://www.serif.com/" style="fill-rule:evenodd;clip-rule:evenodd;stroke-linejoin:round;stroke-miterlimit:2;">
    <g id="Play_02">
        <path d="M250,25C374.181,25 475,125.819 475,250C475,374.181 374.181,475 250,475C125.819,475 25,374.181 25,250C25,125.819 125.819,25 250,25ZM341.499,241.407C344.528,243.21 346.384,246.475 346.384,250C346.384,253.525 344.528,256.79 341.499,258.593C310.248,277.195 236.585,321.042 204.73,340.003C201.639,341.843 197.799,341.881 194.672,340.103C191.547,338.326 189.615,335.006 189.615,331.411L189.615,168.589C189.615,164.994 191.547,161.674 194.672,159.897C197.799,158.119 201.639,158.157 204.73,159.997C236.585,178.958 310.248,222.805 341.499,241.407Z" style="fill:url(#_Linear1);" id="id_101"></path>
    </g>
    <defs>
        <linearGradient id="_Linear1" x1="0" y1="0" x2="1" y2="0" gradientUnits="userSpaceOnUse" gradientTransform="matrix(500,-500,500,500,0,500)"><stop offset="0" style="stop-color: rgb(0, 213, 255); stop-opacity: 1;" id="id_102"></stop><stop offset="1" style="stop-color: rgb(27, 109, 224); stop-opacity: 1;" id="id_103"></stop></linearGradient>
    </defs>
</svg>